# xmcd
#
# Track frame offsets:
#   150
#   13067
#   23567
#   33042
#   43432
#   55107
#   67757
#   80190
#   93500
#   105810
#   118235
#   131870
#   143290
#   154810
#   166130
#   185205
#
# Disc length: 2573 seconds
#
# Revision: 4
# Processed by: cddbd v1.5.2PL0 Copyright (c) Steve Scherf et al.
# Submitted via: Media_Universe 3.0
#
DISCID=ce0a0b10
DTITLE=Various Artist - Country Superstars
DYEAR=2001
DGENRE=Country
TTITLE0=Kenny Rogers - Ruby, Don't Take Your Love To Town
TTITLE1=Dolly Parton - Honky Tonk Angels
TTITLE2=Willie Nelson - Building Heartaches
TTITLE3=Waylon Jennings - Lorena
TTITLE4=Patsy Cline - Walkin' After Midnight
TTITLE5=Johnny Cash - Folsom Prison Blues
TTITLE6=Billy Joe Spears - Sunshine
TTITLE7=Alabama - Patches
TTITLE8=Kenny Rogers - Reuben James
TTITLE9=Johnny Paycheck - I'm Not Looking Back Anymore
TTITLE10=George Jones - A Good Year For the Roses
TTITLE11=Dolly Parton - Making Believe
TTITLE12=Oak Ridge Boys - No One Cared So Much
TTITLE13=Patsy Cline - I've Loved and Lost Again
TTITLE14=Alabama - I Want to Be With You Tonight
TTITLE15=Freddy Fender - Wasted Days And Wasted Nights
EXTD=
EXTT0=
EXTT1=
EXTT2=
EXTT3=
EXTT4=
EXTT5=
EXTT6=
EXTT7=
EXTT8=
EXTT9=
EXTT10=
EXTT11=
EXTT12=
EXTT13=
EXTT14=
EXTT15=
PLAYORDER=
